Coordinates
version=1
nRows=18
nColumns=22
inDegrees=yes

Units are S.I. units (second, meters, Newtons, ...)
If the header above contains a line with 'inDegrees', this indicates whether rotational values are in degrees (yes) or radians (no).

endheader
time	pelvis_tilt	pelvis_list	pelvis_rotation	pelvis_tx	pelvis_ty	pelvis_tz	hip_flexion_r	hip_adduction_r	hip_rotation_r	knee_angle_r	ankle_angle_r	subtalar_angle_r	hip_flexion_l	hip_adduction_l	hip_rotation_l	knee_angle_l	ankle_angle_l	subtalar_angle_l	lumbar_extension	lumbar_bending	lumbar_rotation
      3.04000000	     -2.30536000	     -4.26466344	      2.82300348	     -0.62220806	      1.00414056	     -0.02005507	     21.20803909	      4.85564805	    -10.55856211	    -22.89529798	      4.02081001	      2.32803940	      2.10243419	    -10.22892033	     -7.97757640	    -52.20947232	     -4.48933076	      5.94245986	     -2.93360020	      4.16700591	     -5.20354965
      3.05000000	     -2.19476495	     -4.43241320	      2.84265050	     -0.61277375	      1.00555280	     -0.01801337	     20.36010270	      5.19947282	    -10.59704505	    -22.63494720	      4.49838743	      2.57676145	      3.47718820	    -10.78700130	     -8.05968850	    -54.25213911	     -3.90442828	      5.00359231	     -3.09757459	      4.27660470	     -4.99726754
      3.06000000	     -2.07404742	     -4.58060704	      2.82744980	     -0.60349057	      1.00698074	     -0.01600574	     19.47534659	      5.53924052	    -10.57189957	    -22.30684232	      4.92154952	      2.82275982	      4.81949396	    -11.26607700	     -8.08790245	    -56.06373974	     -3.21701277	      4.27425278	     -3.27745220	      4.36610859	     -4.74103672
      3.07000000	     -1.94480960	     -4.66814254	      2.75655669	     -0.59435167	      1.00841129	     -0.01400317	     18.57475850	      5.82821298	    -10.49725220	    -21.96177184	      5.38633619	      3.12203173	      6.10789385	    -11.62227467	     -8.11062273	    -57.61690353	     -2.49723101	      3.58077695	     -3.47245619	      4.38200442	     -4.41860991
      3.08000000	     -1.80653041	     -4.70684332	      2.63431131	     -0.58533548	      1.00985028	     -0.01200987	     17.65007192	      6.07556414	    -10.37738847	    -21.58493184	      5.86711270	      3.46225013	      7.33561962	    -11.87355781	     -8.13884957	    -58.90674054	     -1.75911258	      3.01398861	     -3.67788932	      4.34263717	     -4.04493608
      3.09000000	     -1.66301765	     -4.70812630	      2.46845526	     -0.57642792	      1.01128713	     -0.01002642	     16.70315829	      6.28970233	    -10.21438681	    -21.17263057	      6.35455595	      3.84387903	      8.50534037	    -12.03598050	     -8.17668535	    -59.93320800	     -1.01324147	      2.59411405	     -3.88423582	      4.26007058	     -3.63232098
      3.10000000	     -1.51758696	     -4.68005566	      2.26056031	     -0.56761547	      1.01269757	     -0.00804777	     15.73802570	      6.47501722	    -10.02136084	    -20.72642035	      6.85376254	      4.26294442	      9.61799449	    -12.12140620	     -8.22788468	    -60.69875253	     -0.26109630	      2.31708001	     -4.08494114	      4.14190406	     -3.18880868
      3.11000000	     -1.36927327	     -4.63176852	      2.01900347	     -0.55890984	      1.01406708	     -0.00608353	     14.76209864	      6.63684118	     -9.79564907	    -20.26017888	      7.36600483	      4.74877825	     10.67627627	    -12.14143929	     -8.28779321	    -61.20961589	      0.48298295	      2.15696236	     -4.28503796	      4.00124976	     -2.73166429
      3.12000000	     -1.22754124	     -4.57060294	      1.75052273	     -0.55026312	      1.01536711	     -0.00413417	     13.78158358	      6.77784186	     -9.56054298	    -19.76996631	      7.88387243	      5.25140856	     11.68508891	    -12.11271143	     -8.36338013	    -61.46588126	      1.21998058	      2.09749087	     -4.46490558	      3.84259333	     -2.25694356
      3.13000000	     -1.09170912	     -4.50737468	      1.46364240	     -0.54170776	      1.01658288	     -0.00222362	     12.80597468	      6.90652218	     -9.30749447	    -19.26923385	      8.40169325	      5.78748615	     12.64945112	    -12.04874058	     -8.44948657	    -61.47695285	      1.93731229	      2.10281016	     -4.63520955	      3.68347735	     -1.77346771
      3.14000000	     -0.96282737	     -4.44566375	      1.16525297	     -0.53321066	      1.01770193	     -0.00034566	     11.83051022	      7.02676064	     -9.03358401	    -18.74994075	      8.91407738	      6.36784393	     13.57056072	    -11.95660376	     -8.53775846	    -61.25201792	      2.61727173	      2.15171243	     -4.78661588	      3.52594237	     -1.29941384
      3.15000000	     -0.85242137	     -4.39514983	      0.85111409	     -0.52475671	      1.01870197	      0.00151556	     10.86981084	      7.14871313	     -8.75664561	    -18.21334642	      9.40202387	      6.91329167	     14.45216978	    -11.86728902	     -8.66666706	    -60.79022767	      3.26619961	      2.21065299	     -4.91088196	      3.38104401	     -0.82260892
      3.16000000	     -0.75200583	     -4.35671396	      0.54332842	     -0.51636712	      1.01958122	      0.00333448	      9.92019707	      7.27123539	     -8.47475815	    -17.66936382	      9.87430057	      7.45324896	     15.29498602	    -11.77089609	     -8.79424838	    -60.10587644	      3.86407833	      2.27227226	     -5.02246055	      3.24838750	     -0.35471980
      3.17000000	     -0.66379769	     -4.33266937	      0.23540368	     -0.50801541	      1.02033016	      0.00510954	      8.98172732	      7.39691216	     -8.19272386	    -17.11490718	     10.32720427	      7.96293478	     16.09339435	    -11.68233858	     -8.94757174	    -59.20556291	      4.41060130	      2.32804175	     -5.11785907	      3.13478403	      0.10443371
      3.18000000	     -0.58757268	     -4.32320521	     -0.06830092	     -0.49969038	      1.02094339	      0.00686206	      8.05269018	      7.52911313	     -7.90955755	    -16.54987335	     10.76098141	      8.43161159	     16.84412541	    -11.60766263	     -9.12800524	    -58.09600865	      4.89952475	      2.37858787	     -5.19857354	      3.03515521	      0.54997917
      3.19000000	     -0.51938099	     -4.32702393	     -0.36028142	     -0.49138968	      1.02142204	      0.00856575	      7.13097295	      7.66414588	     -7.63115597	    -15.97902107	     11.17825092	      8.86759056	     17.54178627	    -11.54340829	     -9.33072948	    -56.78639884	      5.33059537	      2.42928285	     -5.27021602	      2.95032238	      0.98327252
      3.20000000	     -0.45963591	     -4.34316339	     -0.63852078	     -0.48309705	      1.02176311	      0.01021294	      6.21787147	      7.80113516	     -7.35641603	    -15.40606901	     11.57685313	      9.26288499	     18.18278075	    -11.49163936	     -9.56403555	    -55.28492915	      5.70685089	      2.48286758	     -5.33100535	      2.87944535	      1.39654053
      3.21000000	     -0.42213633	     -4.37769993	     -0.92535784	     -0.47483428	      1.02193156	      0.01182150	      5.33946364	      7.94710437	     -7.08729997	    -14.85029049	     11.95614677	      9.56769942	     18.77717534	    -11.46094961	     -9.83976797	    -53.60840076	      6.08721931	      2.53131069	     -5.37165456	      2.82809560	      1.83104126
